<svg width="44" height="36" viewBox="0 0 44 36" fill="none" xmlns="http://www.w3.org/2000/svg">
<path d="M20 30.1V10.4C18.6333 9.6 17.1833 9 15.65 8.6C14.1167 8.2 12.5667 8 11 8C9.8 8 8.60833 8.11667 7.425 8.35C6.24167 8.58333 5.1 8.93333 4 9.4V29.2C5.16667 28.8 6.325 28.5 7.475 28.3C8.625 28.1 9.8 28 11 28C12.5667 28 14.0917 28.175 15.575 28.525C17.0583 28.875 18.5333 29.4 20 30.1ZM22 36C20.4 34.7333 18.6667 33.75 16.8 33.05C14.9333 32.35 13 32 11 32C9.6 32 8.225 32.1833 6.875 32.55C5.525 32.9167 4.23333 33.4333 3 34.1C2.3 34.4667 1.625 34.45 0.975 34.05C0.325 33.65 0 33.0667 0 32.3V8.2C0 7.83333 0.0916667 7.48333 0.275 7.15C0.458333 6.81667 0.733333 6.56667 1.1 6.4C2.63333 5.6 4.23333 5 5.9 4.6C7.56667 4.2 9.26667 4 11 4C13.4667 4 15.5667 4.28333 17.3 4.85C19.0333 5.41667 20.9 6.28333 22.9 7.45C23.2667 7.65 23.5417 7.88333 23.725 8.15C23.9083 8.41667 24 8.76667 24 9.2V30.1C25.4667 29.4 26.9417 28.875 28.425 28.525C29.9083 28.175 31.4333 28 33 28C34.2 28 35.375 28.1 36.525 28.3C37.675 28.5 38.8333 28.8 40 29.2V5.15C40.5 5.31667 40.9917 5.5 41.475 5.7C41.9583 5.9 42.4333 6.13333 42.9 6.4C43.2667 6.56667 43.5417 6.81667 43.725 7.15C43.9083 7.48333 44 7.83333 44 8.2V32.3C44 33.0667 43.675 33.65 43.025 34.05C42.375 34.45 41.7 34.4667 41 34.1C39.7667 33.4333 38.475 32.9167 37.125 32.55C35.775 32.1833 34.4 32 33 32C31 32 29.0667 32.35 27.2 33.05C25.3333 33.75 23.6 34.7333 22 36ZM29 24V2L35 0V22L29 24Z" fill="#1B2432"/>
</svg>
